HIERARCHY
ROOT Hips
{
	OFFSET 0.000000 0.000000 0.000000 
	CHANNELS 6 Xposition Yposition Zposition Yrotation Zrotation Xrotation 
	JOINT Lumbar
	{
		OFFSET 0.000000 0.000000 0.000000 
		CHANNELS 3 Zrotation Xrotation Yrotation
		JOINT Neck
		{
			OFFSET 0.000000 0.445665 0.000000 
			CHANNELS 3 Zrotation Xrotation Yrotation
			End Site
			{
				OFFSET 0.000000 0.227535 0.000000 
			}
		}
		JOINT RightShoulder
		{
			OFFSET 0.019635 0.377685 0.194865 
			CHANNELS 3 Zrotation Xrotation Yrotation
			JOINT RightElbow
			{
				OFFSET 0.000000 -0.243375 0.000000 
				CHANNELS 2 Zrotation Yrotation
				JOINT RightWrist
				{
					OFFSET 0.000000 -0.264825 0.000000 
					CHANNELS 2 Zrotation Xrotation
					End Site
					{
						OFFSET 0.006600 -0.176220 0.000990 
					}
				}
			}
		}
		JOINT LeftShoulder
		{
			OFFSET 0.019635 0.377685 -0.194865 
			CHANNELS 3 Zrotation Xrotation Yrotation
			JOINT LeftElbow
			{
				OFFSET 0.000000 -0.243375 0.000000 
				CHANNELS 2 Zrotation Yrotation
				JOINT LeftWrist
				{
					OFFSET 0.000000 -0.264825 0.000000 
					CHANNELS 2 Zrotation Xrotation
					End Site
					{
						OFFSET 0.006600 -0.176220 -0.000990 
					}
				}
			}
		}
	}
	JOINT RightHip
	{
		OFFSET 0.052140 -0.069960 0.075570 
		CHANNELS 3 Zrotation Xrotation Yrotation
		JOINT RightKnee
		{
			OFFSET 0.000000 -0.402270 0.000000 
			CHANNELS 1 Zrotation
			JOINT RightAnkle
			{
				OFFSET 0.000000 -0.404085 0.000000 
				CHANNELS 3 Zrotation Xrotation Yrotation
				End Site
				{
					OFFSET 0.204105 -0.089430 0.008415 
				}
			}
		}
	}
	JOINT LeftHip
	{
		OFFSET 0.052140 -0.069960 -0.075570 
		CHANNELS 3 Zrotation Xrotation Yrotation
		JOINT LeftKnee
		{
			OFFSET 0.000000 -0.402270 0.000000 
			CHANNELS 1 Zrotation
			JOINT LeftAnkle
			{
				OFFSET 0.000000 -0.404085 0.000000 
				CHANNELS 3 Zrotation Xrotation Yrotation
				End Site
				{
					OFFSET 0.204105 -0.089430 -0.008415 
				}
			}
		}
	}
}
MOTION
Frames: 28
Frame Time: 0.02
0.00053 0.00023 -0.0001 30.89062 -19.54843 -4.17659 43.72269 -0.90655 -6.3712 -10.56023 3.72778 -0.35404 -19.27023 -2.31721 -17.43332 26.02024 149.92693 22.47594 9.26003 -23.1652 3.00115 14.06809 31.19247 -165.56859 33.50742 -10.82346 29.04014 -2.95294 -10.45174 -20.29595 -6.55989 -4.66247 -3.09377 34.91129 6.25996 5.30096 -24.43432 -6.71349 3.35162 2.38077
0.00057 0.00025 -0.00013 30.87352 -19.53697 -4.17406 43.74711 -0.90975 -6.38777 -10.52168 3.71042 -0.35431 -19.31578 -2.72416 -15.74928 26.05877 144.64016 21.08959 8.4448 -23.18936 3.49481 12.54992 31.28045 -159.70559 31.76909 -9.87448 29.03186 -2.90789 -10.17563 -20.29444 -6.57528 -4.67753 -3.10565 34.89352 6.21884 5.11334 -24.43453 -6.71986 3.37134 2.39395
0.0006 0.00027 -0.00016 30.85646 -19.52555 -4.17154 43.77147 -0.91294 -6.40433 -10.48324 3.69308 -0.35457 -19.36133 -3.12995 -14.07018 26.09755 139.36952 19.70751 7.63209 -23.21377 3.98715 11.03619 31.3686 -153.86052 30.03613 -8.92843 29.02364 -2.86295 -9.9002 -20.29294 -6.59064 -4.69256 -3.11751 34.87582 6.17782 4.9262 -24.43473 -6.72622 3.39101 2.40709
0.00064 0.00029 -0.0002 30.83941 -19.51414 -4.16902 43.79582 -0.91614 -6.42085 -10.44481 3.67577 -0.35483 -19.40677 -3.53566 -12.39128 26.13603 134.09901 18.32543 6.81938 -23.23791 4.47932 9.52265 31.45639 -148.01557 28.30315 -7.98237 29.01539 -2.81803 -9.62491 -20.29144 -6.60598 -4.70757 -3.12936 34.85811 6.13682 4.73915 -24.43494 -6.73257 3.41066 2.42023
0.00068 0.00031 -0.00023 30.82235 -19.50268 -4.16649 43.82021 -0.91935 -6.43736 -10.40628 3.65843 -0.3551 -19.45216 -3.9425 -10.70755 26.17412 128.81244 16.93908 6.00416 -23.26167 4.97272 8.00476 31.5438 -142.15274 26.5648 -7.03339 29.00708 -2.77302 -9.34902 -20.28993 -6.62135 -4.72261 -3.14123 34.84031 6.09572 4.55163 -24.43513 -6.73894 3.43037 2.4334
0.00071 0.00033 -0.00026 30.80528 -19.49134 -4.16399 43.8445 -0.92249 -6.45403 -10.36802 3.64111 -0.35536 -19.49803 -4.34602 -9.03828 26.21432 123.5756 15.56608 5.19678 -23.28744 5.46281 6.49988 31.63349 -136.34534 24.84328 -6.09355 28.99904 -2.72825 -9.07459 -20.28846 -6.63669 -4.73762 -3.15305 34.82282 6.05488 4.36529 -24.43537 -6.74529 3.44996 2.44649
0.00075 0.00035 -0.0003 30.78824 -19.4798 -4.16143 43.86899 -0.92577 -6.47038 -10.32925 3.62376 -0.35562 -19.54288 -4.75578 -7.34183 26.25026 118.24475 14.16779 4.37456 -23.30916 5.95901 4.97054 31.71859 -130.43315 23.08988 -5.1364 28.99049 -2.68303 -8.7975 -20.28691 -6.65207 -4.75267 -3.16497 34.80475 6.01358 4.17685 -24.43552 -6.75165 3.46975 2.45973
0.00078 0.00037 -0.00033 30.77117 -19.4684 -4.15892 43.89327 -0.92893 -6.48699 -10.291 3.60645 -0.35589 -19.58868 -5.15981 -5.6703 26.29007 113.00007 12.79268 3.56592 -23.33455 6.4496 3.46361 31.80774 -124.61695 21.36569 -4.19511 28.98236 -2.63823 -8.52289 -20.28544 -6.66741 -4.76768 -3.17679 34.78717 5.97267 3.99021 -24.43576 -6.75801 3.48938 2.47284
0.00081 0.00039 -0.00036 30.75409 -19.45732 -4.15648 43.91741 -0.93192 -6.50408 -10.25317 3.58916 -0.35615 -19.63569 -5.55689 -4.02903 26.33494 107.86054 11.44589 2.77395 -23.36478 6.93346 1.98401 31.90269 -118.91816 19.67723 -3.27324 28.97491 -2.59388 -8.25108 -20.28403 -6.68273 -4.78265 -3.18853 34.77037 5.93235 3.80623 -24.43607 -6.76433 3.50874 2.48575
0.00086 0.00041 -0.0004 30.73712 -19.44485 -4.15367 43.94268 -0.93582 -6.51887 -10.21227 3.57164 -0.35641 -19.67585 -5.99412 -2.213 26.3517 102.1153 9.93609 1.88625 -23.36821 7.45647 0.34693 31.96684 -112.54388 17.78325 -2.2397 28.96405 -2.54677 -7.96243 -20.28216 -6.69825 -4.79789 -3.20083 34.7496 5.88895 3.60834 -24.43586 -6.77079 3.52943 2.49967
0.00088 0.00042 -0.00042 30.7199 -19.43502 -4.15162 43.96534 -0.93781 -6.53821 -10.17826 3.55467 -0.35668 -19.73037 -6.34653 -0.76627 26.42709 97.64889 8.77038 1.20049 -23.42748 7.89655 -0.95761 32.09428 -107.59522 16.32296 -1.4418 28.96009 -2.50561 -7.70981 -20.28134 -6.71329 -4.81253 -3.21191 34.73689 5.85184 3.43891 -24.43681 -6.777 3.54745 2.51156
0.00079 0.00044 -0.00039 30.70235 -19.43481 -4.15197 43.98243 -0.93439 -6.57279 -10.15976 3.53882 -0.35697 -19.8241 -6.46537 -0.3363 26.66929 96.71903 8.55729 1.07439 -23.64565 8.11012 -1.34494 32.4088 -106.59321 16.06427 -1.29656 28.97753 -2.47995 -7.55309 -20.28299 -6.72734 -4.82577 -3.21979 34.74885 5.83377 3.35496 -24.44044 -6.78222 3.55695 2.51712
0.00066 0.00046 -0.00034 30.68455 -19.43666 -4.15302 43.99641 -0.9291 -6.61151 -10.14872 3.52355 -0.35731 -19.93133 -6.49947 -0.27566 26.9683 97.06911 8.68868 1.15009 -23.9175 8.24048 -1.40029 32.78272 -107.01727 16.23955 -1.38684 29.00133 -2.46046 -7.43329 -20.28581 -6.74081 -4.83835 -3.2264 34.76829 5.82158 3.29789 -24.44533 -6.78725 3.56403 2.5208
0.00055 0.00047 -0.0003 30.66657 -19.43619 -4.15358 44.01101 -0.92475 -6.64645 -10.13658 3.50833 -0.35761 -20.03372 -6.57256 -0.04486 27.23872 96.8144 8.65628 1.12978 -24.16286 8.40789 -1.60925 33.12286 -106.76476 16.20787 -1.36536 29.02077 -2.43858 -7.29831 -20.28835 -6.75437 -4.8511 -3.2335 34.78278 5.80565 3.22412 -24.44996 -6.79254 3.57293 2.5258
0.00045 0.0005 -0.00026 30.6496 -19.44212 -4.15496 44.02972 -0.91992 -6.68912 -10.11513 3.49197 -0.35786 -20.13457 -6.64237 0.17194 27.52501 96.65606 8.653 1.12782 -24.42281 8.57732 -1.80156 33.49868 -106.63119 16.21552 -1.3642 29.04693 -2.41472 -7.15591 -20.28973 -6.76878 -4.86443 -3.24101 34.80438 5.79464 3.17069 -24.45326 -6.79704 3.57861 2.52874
0.00032 0.0005 -0.00022 30.63074 -19.43452 -4.15468 44.03817 -0.91574 -6.71702 -10.1144 3.47788 -0.35835 -20.23693 -6.70029 0.33469 27.78662 96.60515 8.6734 1.13573 -24.65806 8.72412 -1.95538 33.80557 -106.59314 16.24747 -1.3767 29.05995 -2.39675 -7.03862 -20.29393 -6.78114 -4.87634 -3.24731 34.81223 5.77424 3.07956 -24.45963 -6.80321 3.59065 2.53562
9e-05 0.00042 -0.00018 30.60471 -19.39521 -4.15078 44.02761 -0.91323 -6.70058 -10.17283 3.47176 -0.35854 -20.38153 -6.73496 0.40353 28.01281 96.4913 8.64984 1.11854 -24.87138 8.81819 -2.0383 33.98534 -106.4189 16.20884 -1.36722 29.04108 -2.39081 -6.97304 -20.30452 -6.78917 -4.88521 -3.25116 34.7868 5.73149 2.89354 -24.4743 -6.81342 3.61871 2.55285
-0.00018 0.0003 -0.00015 30.57734 -19.34127 -4.14503 44.00538 -0.9116 -6.66991 -10.25121 3.46742 -0.35911 -20.51911 -6.76293 0.43775 28.20587 96.44887 8.64216 1.10483 -25.04663 8.89463 -2.10266 34.08165 -106.29987 16.18443 -1.36378 29.00794 -2.39096 -6.93256 -20.31812 -6.795 -4.89259 -3.25379 34.74642 5.67842 2.66668 -24.49202 -6.82539 3.6535 2.5742
-0.00042 0.0002 -0.00011 30.55167 -19.28968 -4.13933 43.98275 -0.90993 -6.64703 -10.31785 3.46122 -0.36017 -20.63319 -6.801 0.51044 28.38047 96.40469 8.64433 1.09136 -25.20064 8.9858 -2.2056 34.16199 -106.18946 16.17529 -1.35872 28.97708 -2.3903 -6.88683 -20.33109 -6.80095 -4.90007 -3.25655 34.70811 5.62644 2.44685 -24.50824 -6.83701 3.68681 2.59443
-0.00069 0.0001 -8e-05 30.52062 -19.25542 -4.1368 43.98358 -0.90651 -6.61745 -10.3957 3.46003 -0.35856 -20.86181 -6.80535 0.47273 28.68873 96.27864 8.58906 1.07714 -25.52024 9.04462 -2.16944 34.46171 -105.98952 16.09369 -1.35671 28.96304 -2.38219 -6.81839 -20.34102 -6.81027 -4.90968 -3.26082 34.68844 5.58873 2.27249 -24.52488 -6.84691 3.71401 2.61176
-0.00092 -1e-05 -3e-05 30.50144 -19.18271 -4.12747 43.93343 -0.90718 -6.59997 -10.45527 3.44814 -0.36246 -20.8483 -6.88067 0.66346 28.72232 96.31955 8.64948 1.06282 -25.48395 9.16905 -2.42324 34.29677 -105.96682 16.15557 -1.34726 28.91194 -2.39021 -6.80023 -20.35793 -6.81248 -4.91486 -3.26195 34.62826 5.52018 1.99859 -24.54147 -6.86056 3.75477 2.63568
-0.00102 -0.00015 1e-05 30.5065 -18.99778 -4.09748 43.74014 -0.91701 -6.60537 -10.45612 3.41231 -0.38256 -20.18264 -7.14375 1.47827 27.90314 96.83009 9.05151 1.04498 -24.48593 9.46825 -3.47984 32.76361 -106.44459 16.6525 -1.30969 28.74985 -2.44793 -6.93695 -20.39389 -6.79186 -4.90514 -3.25242 34.4434 5.35664 1.41395 -24.55623 -6.88654 3.83828 2.68092
-0.00108 -0.00029 8e-05 30.52486 -18.77663 -4.06109 43.49706 -0.93123 -6.62571 -10.43877 3.3646 -0.40799 -19.27115 -7.48081 2.5282 26.83003 97.49433 9.56272 1.02626 -23.1298 9.83667 -4.82986 30.78881 -107.08626 17.28339 -1.26417 28.5535 -2.52056 -7.11977 -20.4367 -6.7648 -4.89149 -3.24015 34.22155 5.16452 0.73822 -24.571 -6.91584 3.93401 2.73196
-0.0012 -0.00043 0.00015 30.54337 -18.57814 -4.02923 43.28002 -0.94477 -6.6488 -10.43155 3.3183 -0.43025 -18.46193 -7.7908 3.48317 25.93687 98.0653 10.00529 1.00866 -21.92816 10.18062 -6.05028 29.08048 -107.63056 17.82284 -1.22536 28.38038 -2.58177 -7.26591 -20.47604 -6.74326 -4.88174 -3.23071 34.02711 4.99377 0.13514 -24.58641 -6.94196 4.01949 2.77754
-0.00117 -0.00057 0.00014 30.53709 -18.35227 -3.99067 43.04762 -0.95299 -6.63248 -10.41602 3.28864 -0.45566 -17.69062 -8.07259 4.38927 24.75979 98.74064 10.52942 0.98871 -20.75519 10.49369 -7.2588 27.07652 -108.27754 18.4915 -1.17472 28.17315 -2.66213 -7.47657 -20.51695 -6.71104 -4.86337 -3.21477 33.78647 4.78799 -0.59815 -24.5993 -6.97495 4.12467 2.83491
-0.00143 -0.00072 0.00032 30.58387 -18.17592 -3.96428 42.83622 -0.97305 -6.70029 -10.41469 3.22182 -0.4758 -16.78423 -8.43108 5.45002 24.12709 99.23125 10.90874 0.97281 -19.44409 10.88865 -8.55608 25.60346 -108.74461 18.92336 -1.14561 28.03062 -2.7069 -7.56693 -20.55622 -6.69911 -4.86158 -3.21142 33.63462 4.64763 -1.08528 -24.61732 -6.99473 4.19209 2.86938
-0.0025 -0.0009 0.00099 30.78921 -18.13716 -3.97565 42.68876 -1.02723 -7.01146 -10.4445 3.0523 -0.47989 -15.5474 -8.98026 6.9092 24.9517 99.19433 10.86576 0.97226 -17.78663 11.48548 -10.0798 25.5437 -108.70434 18.6603 -1.18636 28.0613 -2.64257 -7.28315 -20.5889 -6.74882 -4.9104 -3.24637 33.7269 4.70286 -0.83548 -24.65021 -6.97423 4.14825 2.83621
-0.00387 -0.00108 0.00186 31.04486 -18.15086 -3.99901 42.56508 -1.09272 -7.40415 -10.49167 2.84631 -0.47856 -14.1872 -9.60407 8.50952 26.35448 98.9613 10.67218 0.97475 -16.01266 12.16374 -11.67365 26.06413 -108.46947 18.15514 -1.24702 28.16069 -2.54314 -6.88182 -20.61979 -6.81853 -4.97535 -3.29359 33.91151 4.82359 -0.34059 -24.68811 -6.94088 4.06666 2.78032
